# xmcd
#
# Track frame offsets: 
#        150
#        15583
#        33686
#        52534
#        76315
#        93114
#        105783
#        123164
#        142118
#        158991
#        177063
#        193333
#        211844
#        229174
#        247389
#        266911
#        283657
#        303381
#        318702
#        336229
#
# Disc length: 4761 seconds
#
# Revision: 0
# Processed by: cddbd v1.5.2PL0 Copyright (c) Steve Scherf et al.
# Submitted via: ExactAudioCopy v1.0b3
#
DISCID=1a129714
DTITLE=Various Artist - Love Sweet Memories
DYEAR=2004
DGENRE=Pop
TTITLE0=Emilia - Big Big World
TTITLE1=Lauren Christy - The colour of the night
TTITLE2=Céline Dion - When I need you
TTITLE3=Selena - Dreaming of you
TTITLE4=Natalie Burks - What I we do
TTITLE5=Caron Nightingale - Promise don't come easy
TTITLE6=Trademark - Miss yoy finally
TTITLE7=MLTR - That's why (you go away)
TTITLE8=The Carpenters - Close to you (the long to be)
TTITLE9=Rebekah Ryan - Women in love
TTITLE10=Atomic Kitten - Enternal flame
TTITLE11=Trademark - Only love
TTITLE12=MLTR - Paint my love
TTITLE13=S Club 7 - Never have a dream come true
TTITLE14=Ronan Keating - When you say nothing at all
TTITLE15=Faith Hill - There you'll be
TTITLE16=LeAnn Rimes - How do I live
TTITLE17=Robbie Williams - Better man
TTITLE18=Westlife - My love
TTITLE19=M2M - Pretty boy
EXTD=
EXTT0=
EXTT1=
EXTT2=
EXTT3=
EXTT4=
EXTT5=
EXTT6=
EXTT7=
EXTT8=
EXTT9=
EXTT10=
EXTT11=
EXTT12=
EXTT13=
EXTT14=
EXTT15=
EXTT16=
EXTT17=
EXTT18=
EXTT19=
PLAYORDER=
